<svg xmlns="http://www.w3.org/2000/svg" width="1672" height="864" fill="#4f4e4e" fill-rule="evenodd"><path d="M855.565 15.013c12.733 6.7 19-.66 35.399 5-4.91 7.373-15.676 8.953-28.653 8.34.02-3.313 4.6-2.12 3.367-6.67-6.037.796-9.737 2.71-15.17 0 .501-3.403 4.564-3.273 5.057-6.67zm-419.696 6.67c20.738-.077 40.201-1.65 69.106 5.003-.815 11.423-26.151-1.417-26.968 10.006 2.771 5.433 9.146-3.05 11.8 1.667-7.91 3.293-13.752 8.633-23.598 10.007-2.809 3.316.151 2.123 0 6.673-7.455 2.4-12.278.943-20.227 0 9.205 10.71-12.32-.144-13.483 6.673.208 3.68 7.15.707 10.113 1.667 2.19 8.836-8.253 5.177-6.743 13.343-5.842-.36-9.785-4.197-8.428 5.003-7.578 2.346-14.983-5.05-16.853 1.667 4.756 2.52 11.633 2.943 18.54 3.336-2.421 8.99-16.083 6.46-20.227 1.667-6.79 4.22-26.716 1.986-33.711 1.67-.155-5.16 5.091-4.974 10.113-5.003 2.083-5.4-5.453-1.273-3.37-6.673 11.145-2.133 10.008 7.887 21.91 5.003-5.57-3.383-6.303-11.55-16.853-10.007 1.668-13.023 17.746-1.16 23.598-5.003-6.277-5.463-16.079-7.443-20.227-15.01 12.123-1.994 16.568 3.616 23.596 6.67.307-3.64-1.38-5.307-5.057-5.003 2.857-6.624 12.908-6.13 21.912-6.673-8.292-11.06-24.142 1.987-37.082-1.667 1.31-1.483 1.812-3.767 1.685-6.67-10.463-1.46-15.354 2.593-21.913 5 5.604-5.736-4.488-5.353-6.74-8.336 17.683-7.383 32.215-8.526 53.936-3.336-1.658-3.92-8.44-2.767-8.428-8.34 9.548-4.063 19.19-3.467 26.97 1.67.072-2.854-1.253-4.324-3.371-5.004zm402.844-1.67c1.5 1.296 3.807 1.793 6.743 1.67 1.233 7.413 8.653 4.993 15.17 10.006-8.124 4.75-12.874 12.837-16.856 21.684-6.363.736-7.91-3.29-11.797-5.007 1.073-3.38 7.874-1.097 8.427-5-2.447-4.947-6.577 2.197-11.8 0 .896-4.677 8.12-3.086 11.8-5.007.513-3.843-4.87-1.853-5.06-5.003-5.29-.787-4.45 4.49-8.427 5.003-11.03-1.133-3.233-10.743-13.479-11.673 2.893-10.763 15.727 6.13 16.856-3.337 4.753-.256 4.22 4.717 6.74 6.67 5.297-2.323-2.32-8.229 1.683-10.006zM356.646 40.03c6.483 5.26 16.33 7.19 20.227 15.01 3.35-.02 2.144-4.55 6.744-3.337-.457 6.01-.422 11.537 6.743 10.01-3.995 7.153-13.243 1.66-13.487 10.006-6.485-.13-21.564 4.05-23.598-8.34 5.797-.73 9.448.66 13.487 1.67-4.382-10.4-21.598.88-25.285-8.343.523-2.263 4.22-1.383 6.743-1.667-9.583-5.567 9.595-5.547 0-10.01-.293-4.736 11.029 2.02 8.426-4.999zm733.214 11.673c-4.22 16.4-35.35 6.167-40.45 21.683-11.73.133-10.02 5.74-15.18 11.677-4.03-1.01-7.68-2.4-13.48-1.67 6.62-6.39 10.79-7.32 11.79-15.01 18.23-9.747 35.89-9.934 57.32-16.68zM297.654 63.379c9.729-2.713 31.678 5.033 28.653 15.01-4.985-5.63-17.162-4.143-25.283-6.67.521-2.263 4.222-1.383 6.745-1.67.578-6.133-6.14-5.04-10.115-6.67zm33.713 6.67c4.215-4.06 14.728-.203 15.168 5.003-7.606.857-13.358-.123-15.168-5.003zm-69.109 6.674h13.483c-.702 4.616-14.12 8.633-13.483 0zm-15.17 5.003c-.684 4.883-4.407 6.76-6.743 10.006-3.885.51-1.87-4.82-5.055-5.003-3.4 2.197-5.703 5.477-6.745 10.007-5.213-3.147-9.283-2.467-13.481-3.333 7.496-7.037 18.064-11.034 32.024-11.677zm92.705 6.67c2.57-3.507 13.838-1.574 13.481 3.336-6.432.807-10.755-.473-13.481-3.336zm691.067-1.667c-5.12 5.733-7.44 18.03 3.37 20.013-5.01 3.35-9.37 2.377-15.17 1.67 6.2-7.35-7.99-5.68-11.79-8.34 6.68-2.187 8.54-6.586 8.42-11.676 5.55-.067 8.4-2.813 15.17-1.667zm-748.376 1.667c-1.268 5.546 8.002 15.216 10.113 6.67 5.5 2.413 4.244 3.73 3.372 10.01-17.421-4.19-25.904 8.477-38.766 3.336 2.46-3.683 11.021-1.323 13.481-5.003-7.18-4.267-17.796 2.36-28.653 0 2.821-6.737 11.75-.844 5.057-10.007 12.085-5.743 20.34 12.187 33.711 5 .006-4.453-5.329-3.623-5.059-8.336 1.503-1.297 3.807-1.797 6.744-1.67zm38.766 3.336c2.245-3.197 7.483 1.917 11.8-1.667 4.31 4.46-1.017 8.796 0 15.01h-10.115c5.96-6.467-4.749-9.273-8.427-5.003-5.945-2.873 4.865-2.733 1.687-8.34 3.507.977 5.445 3.507 8.427 5.003.073-2.853-1.253-4.319-3.372-5.003zm37.084-1.666c5.793-.73 9.446.66 13.485 1.667-.382 2.403-5.032.583-5.057 3.333 13.406 14.93 36.986-4.67 53.936 6.673-.718 3.183-4.815 3.02-3.37 8.34-7.375 1.183-11.481-.87-13.486-5.003-15.563 8.197-31.703 2.153-42.138 1.667 2.132-8.777-3.488-9.89-3.37-16.677zm-111.247 30.019c-10.227 2.67-19.548 6.23-21.913 16.68-5.83-1.32-7.117 1.854-10.112 3.337-6.713-.027-4.858-8.533-13.486-6.673.248-10.413 12.038-13.333 5.06-21.68 17.058-.38 30.947-1.213 40.451 8.336zm104.506-6.669c3.19 2.957 11.131 1.217 16.855 1.667-.027 4.977-4.383 5.673-5.057 10.01-10.513-.934-11.32.16-11.798 6.67-5.415.353-4.102-5.947-6.743-8.34.338-5.224 4.346-6.821 6.743-10.007zm-32.025 5.003c5.667-2.954 10.079.283 18.54-1.67-.537 3.917-5.218 3.733-6.74 6.673.432 3.463 7.403.457 8.426 3.333 1.222 5.107-2.908 4.91-1.687 10.01-8.832 3.11-15.045-4.1-26.97-10.01 2.168-6.68 3.488.463 8.43 0 2.213-.586 2.648-2.933 5.055-3.333-.942-2.403-2.627-4.067-5.054-5.003zm-64.051 3.336c-5.473 13.083 10.767-3.417 13.485 8.337 6.605.077 5.222-3.52 6.74-5 7.41-.66 4.402 8.986 10.115 10.006 5.398-3.85-3.588-7.437-1.685-13.343 12.792-1.74 18.053 11.67 16.853 18.347 2.86 7.18 13.838 6.323 18.543 11.673-1.14 4.053-11.27-4.227-11.798 3.336 1.108 4.997 3.602-1.593 6.74 0-.72 9.81-17.5 3.563-20.227 0-10.18 3.827-19.898 8.106-35.395 6.673.042-9.497-15.992-3.08-18.543-10.01 4.796-5.26 17.441-2.757 26.97-3.337-5.019-7.263-20.298-4.376-32.025-5 .805-5.316 11.208-1.143 13.481-5.006-3.332-2.817-10.517-1.82-15.167-3.333 2.551-9.149 11.971-11.506 21.913-13.343zM537 128.425c-.205 7.684-14.815 6.13-13.482-1.67 5.366-5.109 7.053 2.824 13.482 1.67zm116.302 16.68c3.482 1.003 6.383 2.577 5.055 8.34 9.238-6.67 16.151-.92 25.285-8.34 6.063.113 4.67 7.61 11.8 6.67-3.921 16.78-24.281 17.283-40.453 13.343 4.78-3.99 2.32-6.79-5.058-6.67.523-2.267 4.22-1.386 6.743-1.67.579-7.16-6.142-4.51-10.113-3.333.2-4.806 7.188-2.893 6.741-8.34zm-320.253 6.67c5.353 1.376 8.103 5.327 11.798 8.34-3.48 6.14-9.69-.427-16.855 0 .519-3.933 5.854-3.103 5.057-8.34zm109.562 13.343c2.333 7.897-6.165 10.09-10.113 6.673.223-5.339 3.818-7.339 10.113-6.673zm-50.567 20.017c6.93 4.783 15.911 8.813 25.283 15.01-4.115 5.034-10.463-1.767-13.486-3.333-2.8 2.787-4.412 6.753-10.112 6.67 2.619-4.104-5.727-4.907-5.057-1.67-2.54-2.624 4.558-9.86 3.372-16.677zm330.367 40.026c1.993 1.923 5.958 1.894 10.111 1.67.872 6.567-1.452 10.553-1.685 18.347-8.031-1.513-12 6.923-18.54 1.667 7.413-6.29 2.758-4.72 1.685-15.01 7.259 2.18 6.629-3.451 8.429-6.674zM188.094 290.21c7.642-3.066 18.477 5.037 21.912 11.673-10.345-.879-13.28-9.092-21.912-11.673zm615.22 21.684c7.435-.993 3.832 7.037 1.69 10.007-6.211 1.533-3.065-8.797-1.69-10.007zm628.706 0c4.49.733 5.55 1.427 8.43 6.673-3.84 7.867-6.44 16.98-8.43 26.683-5.99-3.986-16.71 2.597-23.59 6.673-2.02-2.193-.66-2.626 0-5.007-9.37-1.483-12.5 3.204-20.23 3.34 2.48-5.383 14.08-10.457 20.23-6.673 3.41-2.74 6.72-5.577 6.73-11.677 11.29 9.157 17.93-15.089 16.86-20.012zM821.855 330.24c2.267-3.203 15.953-3.667 11.8 5.003-5.18-.433-7.58-3.616-11.8-5.003zm583.195 20.017c.06 5.053-8.48 1.613-8.42 6.673-6.33-4.607 6.25-10.12 8.42-6.673zm-20.22 1.666c8.82.247 5.74 7.833 3.36 13.343-5.22-5.417-1.58-9.106-6.74-11.677 1.96.274 3.01-.366 3.38-1.666zm-42.14 45.033c.45 6.007-3.12 8.04-3.37 13.34-6.36-1.573-3.08-14.266 3.37-13.34zm-52.26 25.017c.42 4.867-3.17 5.757-5.05 8.34-2.97-.403-3.85-2.87-3.38-6.67 4.07.68 3.67-3.047 8.43-1.67zm70.8 50.036c3.42 1.063 1.1 7.8 5.05 8.343-1.04 3.97-7.34 2.737-5.05 10.003-8.67.8-3.07-12.533-13.48-10.003 2.44-6.15 12.36 1.283 13.48-8.343zm-217.44 1.67c6.04.2 12.38 11.973 5.06 15.013-7.81 1.057-4.26-9.123-5.06-15.013zm175.3 11.673c4.85 1.313 4.72 7.563 11.8 6.673 1.59 3.08-9.65 1.023-3.38 3.333-.72 3.733-8.31.68-11.79 1.67-3.08 12.51-14 16.236-23.59 15.013 4.28-13.562 21.68-14.129 26.96-26.689zm-45.51 40.03c23.29 7.997 33.24 26.623 48.89 38.363 2.29 4.94-1 7.263 0 15.006-12.49.687-12.94-10.553-21.92-13.34-4.11-18.169-19.82-24.863-26.97-40.029zm104.51 6.673c.16 5.946.78 11.45 5.05 13.343-8.38 5.046-7.25 19.51-15.17 25.016-8.62-4.537-10.61-3.33-23.59-5.003.44-9.586-9.62-12.996-5.06-21.68 7.99 8.72 14.34 1.43 25.28 1.667 5.52-3.426 1.83-15.986 13.49-13.343zm80.9 28.353c-3.73 3.49-11.23 1.307-13.49-1.667.63-5.49 14.46-4.443 13.49 1.667zm-923.676 20.013v-6.67c4.157-.22 8.122-.253 10.112 1.67-.607 4.4-4.049 6-10.112 5zm460.157-3.333c7.189.104 3.934 10.563 6.739 15.01-1.36-.316-1.68-1.673-3.373-1.67-.44 19.58-9.573 30.557-11.796 48.37-18.657 9.18-22.79-18.423-11.807-25.017-1.963-6.863-4.29-10.787-1.677-18.35 13.584-2.023 18.704-9.87 21.914-18.343zm367.439 15.01c-13.47-2.347-28.16-2.06-40.44-8.336 7.87-3.804 30.43.239 40.44 8.336zm136.53 13.343c4.92 13.49 17.66 19.223 18.55 36.693 14.01 8.367 19.73 24.947 32.02 35.026 8.77 31.413-14.73 39.506-16.85 65.043-8.53-1.203-12.76 1.843-16.86 5.01-3.67.304-5.37-1.37-5.06-5.01-18.34 12.233-34.78-16.373-33.71-30.017-4.7 2.58-9.17 5.39-10.12 11.673-.32-22.383-48.96-23.453-58.98-3.333-7.99-3.89-19.98 2.113-26.98 8.337-7.27 1.09-9.44-2.884-13.48-5.004 7.65-21.173-14.2-38.999-10.12-60.042 14.42-11.006 42.75-12.473 43.83-31.689 1.84.41 1.14 3.313 3.37 3.336 5.38-4.353 6.55-14.913 18.54-16.683.73 2.624 5.31 1.427 3.37 6.673 1.51-1.293 3.81-1.79 6.75-1.667 1.64-9.497 10.59-11.757 16.85-16.677 3.87 2.357 16.11 5.083 18.55 3.33 3.51 2.52-4.25 7.927-5.06 11.677 7.99 5.437 14.86 11.977 26.96 13.346 6.47-6.396 3.97-21.652 8.43-30.022zm153.39 130.095c6.91 1.477 10.11 9.851 18.54 5.004-5.56 6.729-8 16.546-16.86 20.013 2.48-7.479.48-8.847-5.05-11.677 4-3.036 5.96-8.1 3.37-13.34zm-143.27 21.68c8.47 1.094 7.83 3.613 16.85 1.674.23 8.557-3.34 13.37-10.11 15.007-3.55-4.281-4.54-11.078-6.74-16.681zm131.48 0c4.21-2.203 4.08 7.767 6.73 1.674 4.2 13.073-16.32 16.069-16.86 30.017-5.6 2.756-9.53-1.63-16.85-1.667 4.98-13.98 24.4-13.664 26.98-30.024zM449.353 848.948c-.042 8.94 10.365 7.534 11.8 15.014-5.062-2.217-12.895-1.696-20.227-1.67 1.128-.196 8.817-9.377 0-10.003.247-3.647 4.245-3.587 8.427-3.341zm99.445-838.942c5.952-1.026 11.59-.136 13.486-8.34 8.365-.856 8.988-.693 15.17-1.667-2.727 3.42-8.111 4.207-11.798 6.67 6.688 2.62 12.822-8.577 23.597-3.333-.335 9.12-14.633 4.423-15.17 13.34 4.01-2.146 8.04-4.273 11.798-6.67 5.046 1.097-1.61 3.563 0 6.67 5.485-1.16 3.026-7.59 5.057-8.336 4.738-.243 4.861 4.083 5.057 8.336 1.518-5.17 7.038-6.376 6.742-13.34h8.426c-1.39 4.713 2.377 4.32 1.688 8.34-3.35.02-2.145 4.546-6.743 3.336 1.106 4.993 3.603-1.6 6.743 0-.738 2.05-2.16 3.423-5.06 3.333.895 1.34 1.76 2.707 1.687 5.003 3.249-.677 1.332-6.466 6.745-5.003-2.468 8.503 1.78 12.7 5.055 20.013 4.664-.207 5.787-3.18 3.372 1.67 6.597 1.65 9.785-3.687 13.481 0-3.928 1.667-7.528 3.667-10.11 6.67 2.883 5.003 6.133 1.853 11.798 1.667-8.067 4.727 3.863 1.987 6.741 5.007-.21 3.683-7.151.707-10.113 1.667.902 3.437 7.974.396 3.372 5.003 5.945-2.567 7.535.9 13.483-1.667 1.732 5.604-5.242 2.597-8.426 3.337v3.336c.21 3.68 7.148.707 10.113 1.664-1.195 4.38-3.658 7.5-10.113 6.673 6.196-8.776-8.352 4.467-11.8 6.67 1.167 4.167 4.497-3.093 8.428-1.667.475 2.693-1.593 2.874-1.685 5.003 1.5-.737 3.013-1.463 3.372-3.337 3.501.937 3.57 2.604 1.685 5.007 13.088-3.923 21.526.163 26.968 6.67-.418 2.1-3.352 1.683-3.37 0-1.915.317-.938 1.673 0 1.67-9.74.89-20.568-4.82-33.713-3.336 4.782 3.813 10.448 3.043 16.856 1.667-.457 6.776-9.778 4.777-10.113 11.677.405 4.3 2.898-2.29 6.744 0-.894-1.344-1.758-2.707-1.687-5.007 5.188 1.243 3.24-4.577 8.428-3.336-2.551 3.593-4.103 8.173-8.428 10.01 7.41 3.94 11.553-9.653 23.597-6.673-5.073 13.883-13.428 24.52-30.338 26.69-4.632 4.313-4.977 12.866-6.744 20.013-9.307-.647-5.218 5.783-13.485 8.34-3.001-1.224-.242-3.033 0-5.007-4.597-1.213-3.392 3.317-6.74 3.337 5.242 4.253-6.828 8.763-11.8 10.01 1.142 3.96 9.953 6.836 0 8.336.271 1.957 3.075 1.41 5.057 1.67-1.218 8.874-6.193 8.64-8.428 13.343-.175 5.177 5.303 4.76 3.372 11.677h-5.057c6.046 5.473-6.62 10.196 3.37 10.003-2.953 2.64-8.979 2.237-13.483 3.337 5.182-6.99-9.233-1.05-3.372-6.67-.417-1.813-3.352-1.133-3.372-3.337-4.987 8.84-16.565.737-20.227 1.667-3.147-3-2.355-9.896-10.113-8.337 3.248-4.05-2.042-10.333-8.427-10.01.798-9.78 7.833-1.43 5.055-10.006 3.352.023 2.143 4.55 6.743 3.333-1.898-2.563-4.842-4.103-6.743-6.67-3.827 1.217-5.04 5.02-6.74 8.34.835-8.43-6.171-12.183-10.115-20.013 3.025.213 3.557-2.043 6.743-1.67.517 3.847-4.87 1.854-5.057 5.007 7.29-.57 7.527-8.12 16.855-6.673-8.073 2.653-27.156-2.88-13.485-10.006-.045 1.62-2.063 1.293-3.37 1.67.21 3.683 7.152.707 10.113 1.663 1.83-.41 1.144-3.313 3.372-3.333-1.432-2.474-4.243-3.587-8.428-3.337 3.539-2.977 12.76-3.243 8.428-15.013-7.781-.083-14.506-1.21-16.856-6.67 5.12-.09 8.307 2.993 16.856 3.337-2.26-5.547-6.368-9.267-10.115-13.343-6.423-.8-3.433 7.72-11.798 5.003 12.962-17.316-16.326-54.703-42.138-45.033 4.631-2.414 3.3-5.54-1.687-6.67 5.602-4.24 12.841-.387 16.858-3.336-.727-3.73-8.308-.677-11.801-1.667.307-3.64-1.378-5.307-5.057-5.003.892-1.344 1.756-2.71 1.687-5.007 11.105-1.24 22.538-2.16 26.968-10.007-.273-1.953-3.071-1.406-5.057-1.667 1.655-8.926 17.042-4.267 16.856-15.01 8.125.907 12.312-7.376 20.227 1.667 5.048-1.097-1.611-3.563 0-6.673 5.662-.043 8.915 2.3 11.798 5.007 7.493-4.757-5.54-9.597 6.743-8.34-2.721-4.878-5.336-.658-8.428-3.339z" fill-opacity=".3"/><path d="M1265.15 90.066c2.6-.293 26.11-3.003 23.59-8.34 1.87.55 15.15-1.397 13.49 5.003 16.08-10.143 28.7 5.474 45.52 5.003 2.94-1.523 5.85-3.1 5.05-8.34 6.98 1.437 15.99.85 21.91 3.336.16 6.27-8.45 3.874-10.11 8.337 10.06 2.287 13.56 11.046 21.91 15.013 4.5-1.67 5.56-6.73 8.44-10.007 9.45 7.903 22.98 1.184 33.7 3.337.47-14.22 14.05-11.68 26.98-10.007-2.84 4.396 4.02 3.527-1.69 8.337 6.3-1.61 13.9-8.747 21.91-3.337-7.81 5.203 11.95 5.32 13.49 11.677 11.15-3.244 26.83-5.437 35.39 1.67-5.6 8.22 6.46 3.276 5.05 11.673 15.73-9.854 32.41-1.173 48.88 1.67 1.87-6.457-5.96-5.937-1.69-10.01 15.03 3.277 30.14 1.297 43.83 8.34v33.356c-7.28 2.257-10.69.784-18.53 0 5.71 5.467 15.56 6.84 15.16 18.35-18.11-3.58-30.54 8.7-42.13 16.676-16.71-5.25-19.75 1.27-32.03 1.67-1.66 5.587-7.29 7.237-8.43 13.34 7.23 2.574 2.33 7.383 6.75 13.347-3.32-7.183-11.56 3.854-6.75 10.003-14.74-.133-14.13 14.93-21.91 21.687-11.38-20.477-10.57-35.577 5.06-45.037 6.36-3.856 25.5-19.149 26.96-21.68 1.22-2.097-.91-6.08 0-8.343h6.75c-10.01-10.906-13.72 10.027-23.6 10.01-1.31-1.487-1.82-3.767-1.69-6.673-14.97-5.31-17.97 8.066-28.65 11.676-1 5.32 3.16 5.16 0 8.34-3.52-3.636-4.81.833-10.11 0-1.12-6.09-12.85-7.083-15.17-1.67-32.09-9.95-48.38 15.376-65.74 30.023 4.78 1.39 7.57 4.747 10.12 8.34 6.29 1.783 4.8-4.14 10.1-3.333 5.31-.79 4.47 4.487 8.43 5-1.24 32.126-17.9 49-37.08 63.379-2.21-.59-2.65-2.937-5.06-3.333-11.7 3.434-12.25 17.89-23.59 21.683 5.95 6.217 10.7 13.247 10.11 21.684-4.08 2.073-8.19 4.126-13.48 5 1.22-7.52-.54-8.326 1.69-13.34-2.32-5.803-6.95-2.963-10.12-5.003 3.48-2.94 1.47-5.167 3.38-6.673-3.34-6.463-12.69-4.63-16.86 0-6.23-3.474 5.12-7.033 0-10.007-10.52.717-11.62 10.737-21.91 11.673-1.01 6.543 9.25 1.963 6.73 10.01 6.28-.926 14-6.993 16.86 1.667-9.27-.84-11.63 5.173-15.17 10.006 4.88 5.187 8.46 11.646 11.8 18.347.51 4.403-3.52 4.307-6.74 5.006.46 3.44 7.46.397 6.74 5.003-7.89 14.443-17.19 36.346-37.08 33.356-2.38 7.653-17.89 2.316-16.86 13.347-2.72-1.64-3.88-4.454-1.68-6.673-9.68-3.36-15.31 4.003-20.23 10.006 3.25 15.23 22.1 19.78 15.17 40.026-8.04 1.493-11.41 7.617-16.86 11.68-8.14-12.933-28.58-35.353-30.33-5.006 6.72 14.477 22.25 20.23 23.6 40.026-18.54-2.233-13.99-27.3-26.98-35.02 5.79-13.773-1.21-26.906-5.05-40.033-6.25 1.097-6.68 8.947-13.49 5.003 3.8-19.323-12.52-18.75-13.48-33.356-1.51 1.026-3.01 2.013-3.37 0-2.76 7.796-9.32 3.6-16.86 6.673-10.08 11.707-21.81 21.773-35.4 30.02 2.54 14.907-1.57 29.787-13.48 35.023-8.62-20.876-21.96-42.376-20.23-68.383-5.44-1.486-2.36 5.443-5.05 6.673-7.9 1.707-9.59-2.747-13.49-5 .26-3.09 5.71-1.023 6.75-3.34-8.46-2.747-15.51-6.893-18.55-15.013-12.95 2.84-25.7 1.073-42.13 0-2.52-2.506-3.02-7.02-6.75-8.336-4.93-.434-5.18 3.77-10.1 3.336-7.49-4.83-16.68-7.966-18.55-18.346-6.476-1.387-9.756-1.28-13.483 3.336 9.66 7.59 10.16 19.86 15.173 25.017-2.42-2.477 7.65-10.14 3.37 3.333 12.76 2.073 17.79-3.52 21.91-10.006.99 10.693 12.75 10.74 16.86 18.346-14.35 26.394-44.95 36.7-75.852 46.7-4.693-35.479-34.876-54.303-40.457-83.389-4.316.17-2.71 6.213-5.057 8.336-3.393-2.193-5.7-5.473-6.74-10.006 4.94 22.913 22.707 47.583 32.026 71.719 7.13 3.507 11.236 10.007 18.543 13.34-3.31 5.96.52 9.157 5.057 11.68 10.757-2.144 20.75-5.04 32.02-6.673-5.81 40.946-44.206 49.656-58.993 81.729 4.374 15.86 7.253 28.24 10.12 43.36-5.863 12.546-20.836 16.086-30.343 25.023.383 10.64 6.713 12.843 3.367 23.35-4.103 2.604-9.997 3.447-13.48 6.67 4.06 27.927-35.123 52.02-67.422 43.363-1.514-4.88-1.514-5.12 0-10.003-14.897-20.84-17.8-53.549-32.026-75.056 1.917-9.776 3.61-19.78 10.113-25.016 3.793-33.887-30.326-42.443-18.54-75.056-3.376-5.75-11.267-5.473-18.54-3.336-2.078-3.507-4.668-6.507-6.741-10.01-21.34 4.76-39.66 3.363-57.312 10.01-23.326-12.157-37.778-29.347-47.193-51.707 8.165-8.773 6.387-22.04 1.684-30.02 6.793-19.41 19.301-33.16 35.396-43.366-6.596-16.713 15.758-17.23 16.855-31.693 28.997 8.423 49.129-11.184 77.538-6.667 9.283 3.554-2.421 13.127-1.687 15.007 3.49 8.98 12.833 2.626 25.283 10.013 2.163 1.283 1.22 5.606 3.373 6.67 7.04 3.48 16.133 4.27 18.537 3.336 5.74-27.543 35.56 8.56 52.253-5.006 8.24 4.856 13.296-.84 16.853 5.006 1.91-7.526 8.44-20.526 10.117-33.359-9.69 4.513-20.907-1.76-30.343 3.333-4.59-2.126-8.656-4.77-13.48-6.67.664-9.033-3.853-8.513-3.373-16.68-6.566-10.153-14.803 5.49-18.54-1.667-1.37 5.77 3.15 7.04 0 10.006.527 3.923 7.994.99 6.744 6.673-3.69-.374-9.077-7.527-11.8-3.333-4.366-2.61-2.566-7.696-10.113-10.013-.69-4.013 3.08-3.62 1.683-8.34-6.313-8.756-21.343-8.893-23.593-21.683-7.46 5.66-1.34-1.606-10.116-1.663-4.58 17.333 17.839 22.37 26.97 31.686-1.474 4.937-1.337-5.037-6.744-1.667-3.37 3.753 1.857 9.38-3.37 13.347.483-17.883-26.285-21.28-33.71-36.696-9.43 3.92-13.365 10.709-26.97 6.673-3.658-.28-.763 5.917-1.685 8.34-21.386 5.667-13.643 30.649-40.453 31.686-8.077-2.083-6.385-8.446-16.858-5-.018-2.446.64-13.65-1.683-8.343-1.777-5.267 6.215-20.996 0-26.683 12.343-2.846 18.946.617 35.396 0 7.494-10.663.842-24.563-11.801-28.356 13.233-6.467 31.135-9.343 42.143-28.35 2.236 4.383 6.52 4.177 5.053-3.34 6.287.104 10.658-1.68 15.168-3.333 1.204-8.477-2.792-12.793-3.367-15.01 2.724-2.513 8.108-6.79 11.797-3.336.91 5.907-5.967 4.103-5.057 10.006-.62 5.617 7.09 2.997 6.747 8.34 13.296-3.943 19.966 2.963 33.709-6.673 3.817 7.386 8.923-.127 15.17 0-.517-7.733.013-14.437 3.367-18.347 5.296-.79 4.457 4.49 8.427 5.003 5.313.81 1.263-7.647 5.06-8.34.67-3.993-7.676.927-5.06-5.003 6.99-9.283 21.363-1.023 30.339-8.337-9.417-11.72-30.07 7.607-40.45-5.006-3.776-18.836 5.557-24.253 18.54-30.02-4.45-17.51-24.49-6.727-21.91 6.67-9.053 3.273-16.443 8.193-18.543 18.347 1.62 5.07 6.45 6.967 10.117 10.01-3.737 2.977-5.123 8.277-11.8 8.337 1.2 8.42-2.303 12.176-3.37 18.35-4.836-4.293-8.84 2.343-11.803 5-5.613-8.34-7.146-20.72-13.483-28.35-5.847 3.663-8.902 10.086-18.54 10.003-.046-1.62-2.062-1.293-3.37-1.667-.038-13.283-6.168-12.193-1.688-28.356 35.491-10.446 44.211-58.576 82.591-60.042 4.413-2.307 5.347-8.057 11.8-8.337.213 2.99-2.06 3.52-1.687 6.67 4.793-6.146 9.43-2.606 15.173-8.34.47 2.697-1.597 2.874-1.683 5.007 5.356-4.273 6.807-2.043 13.48 0 .287 3.617-5.977.753-8.423 1.667 15.943 10.387 49.583 7.233 58.986 28.353-10.49 10.447-32.28 2-42.133-3.336.383 5.736 5.017 7.27 10.113 8.343-3.75 10.99 4.347 18.563 16.856 18.343 2.673-8.207-8.713-2.5-6.747-10.006 6.84 1.02 9.92 5.753 18.543 5.003.473-3.8-.403-6.267-3.367-6.67 3.907-4.06 13.276-12.297 18.537-5.007 5.59-6.823.87-12.33 1.683-18.346 2.613-4.59 10.113-.16 11.796 1.67-2.057 2.41-6.43 2.526-8.43 5.003 1.713 3.88 5.803 5.38 11.807 5.003 6.437-9.753 20.836-11.626 32.026-16.676.92 3.696-3.22 2.373-3.38 5 7.07 5.47 22.67-11.644 28.66 0 5.2 1.25 2.06-5.747 8.43-3.337 1.39-4.71-2.38-4.32-1.69-8.336 12.77-2.443 27.06 6.046 37.09 11.673 1.36-.317 1.67-1.67 3.36-1.667-2.99-3.71-3.06-10.313-10.11-10.006 3.28-6.337 2.48-6.33 0-13.343 5.53-2.307 10.31-5.37 10.11-13.343h18.55c-6.08 10.69-3.88 24.026 1.69 35.023-1.86 9.85-6.85 16.583-20.24 15.013 13.5 14.007 29.23-6.09 28.66-16.676 12.96-3.383 3.52 15.41 16.86 11.673-4.39-8.729-4.85-16.586-23.61-16.68 1.41-7.95 5.45-12.03-1.68-16.676.73-5.397 10.99-1.354 8.43-10.007 2.4-5.3 2.4 8.144 0 8.337 2.45 5.363 11.31 4.373 16.86 6.673.57-6.133-6.15-5.043-10.12-6.673 1-6.09 9.73 2.086 10.12-6.673 8.48.493 9.54 8.343 20.22 6.673-1.5 2.97-4.71 4.24-3.37 10.01 3.72-5.854 2.19.106 6.74 1.667 4.29-3.54-5-7.43 0-11.676-2.73-7.297-14.3-5.863-13.48-16.677 14.6-5.26 25.51.933 33.71-3.336.82-5.253-5.18-3.777-3.38-10.007 15.89-8.606 40.4-13.077 59-10.006 1.53-6.083 13.41-3.773 8.43-11.677 6.63-.8 13.33-8.09 20.22-3.336-.41 1.813-3.35 1.13-3.36 3.336.72 3.73 8.3.673 11.79 1.667-.59 2.19-2.97 2.624-3.36 5.003 11.99-1.933 26.08-3.14 33.71 3.337 1.6 3.106-5.05 5.576 0 6.67-10.83 9.863-27.12 14.317-38.78 23.35zM924.672 283.537c1.793 3.23 7.767 2.327 10.117 5.007-7.043-1.407-7.96 3.24-13.49 3.333-.847-8.047-3.967-3.46 0-10.007-6.824 2.303-5.324-3.623-10.107-3.336-9.307 5.81-14.227 15.95-18.54 26.689 18.13 7.667 41.916 2.857 67.419 5.003.663-15.663-15.083-15.1-21.91-23.356 8.02-3.007 3.96-7.913 10.113-11.67-9.442 1.221-17.669 3.647-23.602 8.337zm60.686 5.007c2.447 11.473 8.664 19.223 15.172 26.683-5.565 1.727-3.642 10.856-6.749 15.013 8.029 4.167 14.939 9.057 26.969 5.003-1.18-10.2-.02-15.227-6.74-21.683 4.47-.023 9.92.923 10.11-3.333-2.11-.687-3.45-2.153-3.37-5.003-4.77-1.38-4.37 2.347-8.43 1.667 4.79-6.81-7.73-8.337-8.42-15.013 5.03-.58 3.17-7.974 11.79-5.007v-10.003c-14.11-3.074-21.465 5.196-30.332 11.676zm-96.079 26.683c5.093-.517 13.106 1.856 13.483-3.333-5.733-.114-11.762-.52-13.483 3.333zm-16.856 15.013c-.32 1.89-1.69.923-1.687 0-2.12.41-1.7 3.316 0 3.336-2.396 4.77-9.8-3.876-5.057-6.67 2.494.864 4.251 2.464 6.744 3.334zM476.321 155.112c-5.692.68 4.485 6.467-3.37 5.003 6.315 3.203 8.918 10.08 20.227 8.34 2.807 3.313-.153 2.12 0 6.673 8.163-3.05 5.345 3.073 15.168 1.663-2.582 9.35-9.56 2.813-10.113 13.347-7.41-2.677-9.29-10.823-18.54-11.677-4.104 3.137 3.303 6.057-5.059 3.337 8.204 11.93 21.285 14.267 16.858 26.687-7.51-3.597-11.203-8.403-18.542-8.34.027 8.313 12.31 4.497 11.798 13.343-9.465-1.753-16.028-6.376-25.285-8.34-2.7-15.81-16.323-9.46-30.338-10.006-1.228-4.553 3.35-3.36 3.372-6.673 7.48 2.443 9.892-.01 18.54 0 1.256-5.133-4.626-3.204-3.372-8.34 4.941-.11 6.262-3.813 8.428-6.67 1.518-9.84-9.673-7.104-10.113-15.01-4.062-.683-3.665 3.043-8.427 1.667 6.687-3.857-10.258-14.113-20.227-16.677-1.283 6.273 8.95 1.15 6.74 8.337-12.675-2.323-32.106-1.023-47.195-6.67.434-3.463 7.405-.457 8.428-3.337-2.195-3.943-9.108-3.213-13.483-5.003 2.323-8.596 4.275-22.203 21.911-20.016-12.208 6.553-1.06 17.733-1.685 25.02 3.521.707 4.463-1.143 6.741-1.667 1.792-6.22-6.323-2.64-5.057-8.34h5.057c.5-4.387-6.538-1.313-5.057-6.67 4.479-5.76 16.297-11.704 23.598-1.67-.97 3.49-4.18 4.76-3.372 10.006 5.75.6 8.925-7.854 10.112 1.67 2.437-2.04 2.558-6.367 5.058-8.343 5.105 2.18 13.896.704 16.855 5.007-.595 2.19-2.968 2.623-3.37 5.003 6.87 3.233 10.008.074 18.542 1.667-3.978 5.693 4.515 5.973 13.481 6.673-.187 3.15-5.571 1.156-5.055 5.003 1.191 3.874 7.91-4.273 10.113 0-2.817 1.573-5.902 6.164 1.685 5.003-.377 2.126-5.026 2.186-5.052 0zm-139.899 11.677c-.23-6.23 6.193 6.256 8.427 8.34 1.373-6.427 5.113-10.51 10.113-13.343-.272-1.957-3.072-1.41-5.057-1.67 2.528-3.877 4.122-2.543 8.428-1.667-1.412-6.943-13.146-3.67-16.856-8.34.21-4.176 3.218-5.22-1.684-6.67 1.188-5.417 9.513-1.177 5.055-8.34 5.473-.967 7.841 1.133 11.798 1.667-1.711 9.337 9.692 10.407 1.687 16.68 5.188 1.167 3.24 1.167 8.428 0 .338 4.843 2.625 4.323 3.372 11.673 3.327-1.153 4.493-4.446 5.055-8.34 3.432.497 4.491 3.343 6.743 5.007.62 2.833-1.317 3.143-3.372 3.333.113 4.89 3.855 6.197 6.741 8.34 7.402-.46 4.697-10.92 11.798-11.673 1.255-5.133-4.626-3.207-3.37-8.34 4.605-2.49 13.927 2.207 18.54 5.003 1.163 5.55-3.485 2.687-5.057 1.667-1.715 7.26 3.487 7.67 5.057 11.676.712 5.707-5.046 5.01-6.742 8.337-3.975-.51-3.135-5.79-8.428-5-4.815.867 2.722 2.466 3.372 3.333-2.448 4.947-6.573-2.196-11.798 0-4.6 1.507 5.128 3.73 0 6.673-7.066 6.86-9.991-2.703-20.226-1.67 5.153 2.13 7.776 6.76 15.17 6.673 2.448 12.807-13.985 2.55-11.798 11.673-5.432-.74-9.132-3.193-15.172-3.337 1.537 4.043 6.773 4.417 11.8 5.007-8.955 6.56-18.862 12.327-20.227 30.023 4.368 4.573 13.11 4.82 11.8 15.006 18.892-3.893 26.948 14.94 48.879 13.343-4.553 12.56 4.077 18.583 11.798 26.69 10.198-5.697 4.388-17.653 1.687-25.02 8.13-1.406 12.033-6.993 15.17-13.343-.623-6.61-4.886-9.617-10.115-11.677 8.318-11.703 1.088-19.356 3.372-28.353 6.77 1.64 14.792 2.046 23.596 1.67 2.896 5.477 6.425 10.323 15.172 10.007-3.515 5.073 2.571 9.977-1.685 15.01 3.803 1.52 15.035 3.167 18.54 1.667 2.81-2.223 2.619-7.413 5.059-10.006 9.745 2.59 9.776 14.786 16.853 20.013-.271 1.957-3.072 1.41-5.055 1.67.875 5.566 13.123 5.81 8.428 11.673 6.352-1.28 8.055 2.037 13.481 1.67-.918 5.764-10.526 2.927-11.796 8.34 3.513 4.966 6.866-4.193 11.796-3.337 4.208.84 5.632 4.437 10.115 5.007-1.168 1.343-2.623 4.566 0 5-14.68 19.943-63.311 6.293-72.478 31.693 5.77-1.037 19.628-15.307 32.026-10.01-1.432 3.586-4.152 5.9-10.115 5.006 7.051 2.783 9.423 17.104 23.596 15.01-8 5.307-15.375 8.684-21.912 10.007.765-8.046 8.238-6.883 11.798-8.34-10.383-4.33-38.648 6.963-35.395 21.683-7.073-.88-9.417 2.913-15.171 3.333 1.22 5.1-1.724 6.08-1.685 10.014-2.722.466-2.902-1.58-5.055-1.673.185 4.153 3.157 5.167 0 8.34-3.687-.247-3.62-4.2-3.372-8.34-.558 3.003-3.572 8.886-3.372 11.68.238 3.327 4.21 1.633 5.057 3.333-1.363-2.733-2.433 10.073 0 5.003-5.19 10.803-18.646 10.217-26.97 23.35-1.392 12.826 10.771 20.026 5.058 31.689-6.892-2.776-12.955-10.977-10.115-18.343-1.68-2.233-4.555-3.28-5.055-6.673-8.765 3.153-27.553-8.414-32.025 5-38.348-25.54-55.754 63.26-8.43 53.373 5.534-1.747 5.963-8.55 8.43-13.34 6.25 1.18 7.231-2.85 13.483-1.673-.997 7.053-4.034 17.626-8.428 28.356 9.729.383 22.015-1.767 26.97 3.34-.338 6.337-1.492 11.863-3.372 16.677 1.019 6.22 7.747 6.79 8.427 13.34 10.362.853 12.663-5.617 21.913-1.667.185 4.15 3.157 5.167 0 8.34 4.29 1.816 6.535-7.81 6.742 0-5.028.776-2.763 9.2-1.685 13.343 5.559-.96 2.415-6.296 1.685-10.003 5.155 1.207 4.958-2.883 10.113-1.667 7.485 4.833 18.19 8.036 26.97 3.33 7.298 1.914 4.148 5.487 11.798 5.01.473 2.69-1.592 2.87-1.687 5 11.916-.67 14.103 8.287 20.228 13.343 21.965-3.39 27.258 9.723 35.396 20.013-2.142 5.667-7.875 7.777-10.115 13.34 5.427 2.514 14.773 7.25 20.227-1.663 6.803 1.606 15.778 1.06 15.171 10.003 17.461-6.057 28.162 7.243 42.138 10.01 14.963 20.097-14.247 27.283-16.855 43.366-2.387 14.716-.435 32.24-13.485 43.366-19.323 1.06-36.38 7.883-30.341 25.017-2.343 4.903-8.875 5.673-8.428 13.343-11.09-2.86-10.683 19.203-20.225 23.35-8.125-.543-10.372-1.977-20.227-3.34 14.525 8.483 7.329 29.093-16.854 25.023-1.083 1.68-1.023 5.739-1.687 11.673-4.155.224-8.12.257-10.112-1.667-.47 11.787-3.947 23.163-13.487 30.023-.12 5.677 4.958 6.21 8.43 8.34-5.5 6.229-8.72 14.72-16.856 18.343-1.423 6.971 3.278 7.877 3.372 13.347-7.41-5.267-10.665 5.437-15.17 8.337 4.715-6.733-4.102-11.927-10.115-13.347 3.78-8.72-6.405-13.206 1.687-23.35-4.28-2.184-6.6-7.49-6.742-10.003 6.678-4.08-1.883 2.486 5.055 1.663 2.747-3.394 3.542-8.724 6.743-11.67-5.508-3.69.695-9.25 0-15.01-.253-3.087-5.708-1.023-6.743-3.34-1.335-5.767 1.876-7.04 3.372-10.007-.512-13.71 4.873-29.613 6.743-45.033 1.597-13.17 13.602-47.339 6.743-63.379-4.22-9.87-21.685-12.12-28.656-21.68-9.251-12.687-5.957-27.8-21.91-38.363.713-3.483-1.155-4.417-1.687-6.673-.356-5.91 7.909-3.293 6.742-10.007-.735-2.477-2.155.657-5.055 0 .091-22.713 27.14-22.68 15.168-48.366 9.325-9.71 14.572-15.773 23.598-23.35-1.433-2.473-4.24-3.59-8.428-3.34-2.965.403-3.84 2.87-3.37 6.673-16.763-4.817-28.415-14.967-33.711-28.35-16.934.633-25.358-7.16-33.711-15.013-19.519 6.957-41.063-8.123-53.937-18.35 1.307-1.483 1.812-3.76 1.685-6.673-5.145-7.693-9.038-16.626-18.542-20.01-9.475-10.637-13.363-26.807-28.655-31.69 6.55 16.313 16.285 29.473 26.97 41.696-11.664 4.284-10.51-18.483-23.599-18.343-.213-2.997 2.062-3.523 1.687-6.673-14.447-6.28-8.4-32.833-30.341-31.693-6.637-16.669-19.332-25.566-18.538-45.033.413-10.19 5.563-21.37 0-33.356 2.128 2.34 8.892.093 6.74 6.673 8.003-13.873-9.021-19.723-21.912-23.356 4-7.38-3.233-14.75-11.798-18.343-.714-3.486 1.155-4.417 1.685-6.673-4.203 1.377-2.533-8.557-11.8-6.67-.44-11.796-11.91-12.673-13.481-23.35-2.29.517-1.4 4.177-1.687 6.67-4.523-3.137-17.441.503-18.543-10.006-19.062-1.26-30.193-2.32-40.453-10.007-4.862 1.78-5.588 5.06-3.37 10.007-4.93-5.01-10.428 6.49-15.17 1.667.752-5.367 2.573-9.68 10.113-8.336-23.071-4.773-23.227 32.086-52.25 33.356 5.22-5.953 15.153-7.243 15.167-18.346-6.872-.197-10.38-2.054-21.91 0 .222-4.11.255-8.037-1.687-10.007-4.972 2.26-10.437 2.087-13.483-1.67-1.208-4.526 7.947 1.197 6.742-3.333-2.55-2.48-7.398-2.687-11.798-3.337-.348-7.013 6.405-7.006 6.74-13.343 9.613 2.287 10.188-4.373 18.543-3.336-.153-6.23-1.89-4.753 0-10.007-10.782 2.48-13.742 2.487-26.97 1.67 7.068-7.52-3.349-3.1-5.055-10.01 7.51.207 10.45-4.113 16.854-5.003 2.673 10.083 14.3.284 18.541 1.667-8.928-7.287-24.104-8.39-30.339-18.343 18.358-6.887 26.393-18.75 45.511-21.683 28.751 8.687 75.708 8.22 101.132 21.683 4.343-.403-2.315-2.87 0-6.673 10.511.396 18.401-1.803 23.596-6.673 3.847 5.007-10.525 6.203-13.485 10.01.595 2.193 2.968 2.624 3.372 5.003 3.92-10.02 21.513-6.51 25.283-16.676 3.392 3.313 5.51 7.886 10.112 10.003 4.042.664-.934-7.597 5.06-5.003v5.003c13.901-11.21 29.473 6.414 48.879 5.007 1.508 5.383-5.499 2.343-6.745 5.003 10.187 9.123 35.24-6.244 37.084 11.673 6.117-1.513 1.027-4.92 1.685-10.006 14.807-5.733 30.905 3.053 48.881 1.667 2.125-.412 1.707-3.315.007-3.335zm411.271 83.392c-1.428-1.574-4.15-1.1-10.113-1.67 6.478-3.917.185-10.1 10.113-10.006 2.69-7.267-5.856-6.03-1.685-10.006-.249-3.72-4.249 2.163-8.428 0 1.908-5.237-.483-4.407 1.685-8.337-9.43 3.957 1.036-2.66-6.744-3.336 3.138-8.707 3.332-14.667 13.487-13.343.515 3.847-4.87 1.854-5.06 5.003.211 3.68 7.152.71 10.119 1.667-1.483 4.093-1.52 9.62-6.744 10.01 13.275 1.874 10.764 19.37 23.599 21.683 3.21 6.947-11.317 8.003 0 8.337-7.187 6.233-24.117 2.823-32.026 8.34-2.458-2.542 7.969-6.489 11.797-8.342zm692.757 31.69c3-12.943-5.57-37.453 3.36-45.033 1.09 8.133 1.2 17.636 6.75 25.016-1.68 2.784-7.79 1.184-8.42 5.007-.38 5.933 1.13 9.993 5.06 11.673-.17 3.223-6.59-2.887-6.75 3.337zm-900.077 26.683c-5.573-2.146-10.631-.23-21.912-1.663 8.237-3.22 4.332-19.003 16.855-21.683-.188 4.26-3.09 5.84-5.057 8.336 2.633 3.133 5.867-1.693 6.74 5.006 3.025.213 3.557-2.04 6.745-1.667-.62 5.67 3.717 8.91 5.055 16.677-2.462-1.454-6.527-1.324-5.055-6.67-2.213.586-2.651 2.933-5.057 3.336-1.886 4.831-1.818-2.562 1.686-1.672zm889.967-3.33c2.81-7.66 12.35-7.07 8.42-18.353 6.43 2.543 9.32 8.57 16.87 10.013 1.24 6.803-10.93.317-8.43 8.34-6.51-1.876-7.8-3.946-15.18-1.67.33 1.35 1.69 1.66 1.69 3.337-1.45 3.179-1-1.804-3.37-1.667zm-96.08 138.432c2.23-3.92 4.7-7.583 3.37-15.01 5.04.01 7.08 2.997 8.43 6.67-4.17 5.957-4.39 10.427-5.06 16.68-2.11-.413-1.7-3.316 0-3.34-.45-3.433-7.46-.394-6.74-5zm-889.961 10.007c-2.338 6.94-8.712-.494-13.487 3.333.505-7.273-22.775-17.376-32.025-10.006 7.914-13.528 32.985 3.646 45.512 6.673zm8.425 5.006c-.94-2.213 18.553-2.063 20.227 6.673-10.372-4.593-13.487 3.18-25.285 0-5.74-2.1 14.345-1.067 5.058-6.673zm938.856 91.732c-6.55-1.716 25.42-5.176 20.22 0-8.76 1.067-13.51-3.679-20.22 0zm15.16 5c-2.92 2.113-4.41 5.64-10.11 5.007 2.4 3.613 8.51 9.09 5.05 13.343-4.24-.68-7.74-5.707-5.05-8.34-8.58-2.373-3.87 8.397-5.05 13.34-7.13-7.12-5.32-13.426-3.39-23.35 6.25 4.391 11.27 2.494 18.55 0zm107.87 33.364c-7.41.256-17.81-.583-13.48 6.667-10.65 2.756-10.42-5.26-18.54-5.003 2.17-12.723-21.77-23.51-30.34-20.013.27-1.937-.37-2.963-1.69-3.333 5.48-4.51 9.63-2.237 13.49 1.667 4.01-2.7 7.42-5.99 11.8-8.34 19.35 3.08 31.83 12.966 47.19 20.013-7.43 8.437 6.52 15.676 13.48 20.016-6.42 1.869-20.21-3.318-21.91-11.674zm28.65-15.014c3.3 4.276-9.09 11.03-15.16 6.67 4.16-3.11 14.08-.52 15.16-6.67zm-119.67 18.347c-4.77 3.06-9.75 5.917-15.16 8.34 2.91-4.894 7.9-7.747 15.16-8.34z" fill-opacity=".3"/></svg>