<svg xmlns="http://www.w3.org/2000/svg" width="60" height="60" fill="none" xmlns:v="https://vecta.io/nano"><path d="M44.333 21.667h-2.381v-4.762C41.952 10.333 36.619 5 30.048 5a11.91 11.91 0 0 0-11.905 11.905v4.762h-2.381A4.78 4.78 0 0 0 11 26.429v23.81A4.78 4.78 0 0 0 15.762 55h28.571a4.78 4.78 0 0 0 4.762-4.762v-23.81a4.78 4.78 0 0 0-4.762-4.762zM30.048 43.095a4.78 4.78 0 0 1-4.762-4.762 4.78 4.78 0 0 1 4.762-4.762 4.78 4.78 0 0 1 4.762 4.762 4.78 4.78 0 0 1-4.762 4.762zm7.381-21.428H22.667v-4.762a7.39 7.39 0 0 1 7.381-7.381 7.39 7.39 0 0 1 7.381 7.381v4.762z" fill="#fff" fill-opacity=".3"/></svg>