<svg xmlns="http://www.w3.org/2000/svg" width="24" height="25" fill="#004275" xmlns:v="https://vecta.io/nano"><path d="M0 15c0 1.625 1.05 3 2.5 3.525V22.5H0V25h7.5v-2.5H5v-3.975C6.45 18 7.5 16.625 7.5 15V5H0v10zm2.5-7.5H5v3.75H2.5V7.5zm19.538.675l-1.187-.4A1.24 1.24 0 0 1 20 6.6V1.25C20 .563 19.438 0 18.75 0H15c-.687 0-1.25.563-1.25 1.25V6.6c0 .538-.35 1.013-.85 1.188l-1.187.4C10.688 8.525 10 9.475 10 10.55V22.5a2.51 2.51 0 0 0 2.5 2.5h8.75a2.51 2.51 0 0 0 2.5-2.5V10.55a2.51 2.51 0 0 0-1.712-2.375zM16.25 2.5h1.25v1.25h-1.25V2.5zm-3.75 8.05l1.188-.4c1.537-.5 2.563-1.937 2.563-3.55v-.35h1.25v.35a3.75 3.75 0 0 0 2.563 3.563l1.188.388v1.95H12.5v-1.95zm8.75 11.95H12.5V20h8.75v2.5z"/></svg>