<svg xmlns="http://www.w3.org/2000/svg" width="13" height="14" fill="none"><path d="M11.7 12.727c-.903 0-1.807-.299-2.6-.84-1.586 1.088-3.614 1.088-5.199 0-.793.541-1.696.84-2.6.84h-1.3V14h1.3c.897 0 1.781-.223 2.6-.63 1.638.821 3.562.821 5.199 0 .819.414 1.703.63 2.6.63H13v-1.273h-1.3zM1.269 11.455h.032c1.04 0 1.963-.56 2.6-1.273.637.713 1.56 1.273 2.6 1.273s1.963-.56 2.6-1.273c.637.713 1.56 1.273 2.6 1.273h.032l1.228-4.251c.052-.165.039-.344-.039-.496s-.221-.267-.39-.318l-.832-.267v-2.94c0-.7-.585-1.273-1.3-1.273h-1.95V0h-3.9v1.909h-1.95c-.715 0-1.3.573-1.3 1.273v2.94l-.838.267c-.169.051-.312.165-.39.318a.63.63 0 0 0-.039.496l1.235 4.251zm1.332-8.273H10.4v2.526l-3.9-1.254-3.9 1.254V3.182z" fill="#004275"/></svg>