<svg xmlns="http://www.w3.org/2000/svg" width="60" height="60" fill="none"><path d="M42 37.5l3.875 3.875C43.475 45.6 37.55 48.975 32 49.8V27.5h7.5v-5H32v-2.95c2.9-1.05 5-3.8 5-7.05C37 8.375 33.625 5 29.5 5S22 8.375 22 12.5c0 3.25 2.1 6 5 7.05v2.95h-7.5v5H27v22.3c-5.55-.825-11.475-4.2-13.875-8.425L17 37.5 7 30v7.5C7 47.2 19.3 55 29.5 55S52 47.2 52 37.5V30l-10 7.5zM29.5 10a2.51 2.51 0 0 1 2.5 2.5 2.51 2.51 0 0 1-2.5 2.5 2.51 2.51 0 0 1-2.5-2.5 2.51 2.51 0 0 1 2.5-2.5z" fill="#fff" fill-opacity=".3"/></svg>