<?xml version="1.0" standalone="no"?>
<!DOCTYPE svg PUBLIC "-//W3C//DTD SVG 20010904//EN"
 "http://www.w3.org/TR/2001/REC-SVG-20010904/DTD/svg10.dtd">
<svg version="1.0" xmlns="http://www.w3.org/2000/svg"
 width="260.000000pt" height="260.000000pt" viewBox="0 0 260.000000 260.000000"
 preserveAspectRatio="xMidYMid meet">
<metadata>
Created by potrace 1.14, written by Peter Selinger 2001-2017
</metadata>
<g transform="translate(0.000000,260.000000) scale(0.100000,-0.100000)"
fill="#000000" stroke="none">
<path d="M1125 1926 c-17 -6 -45 -20 -62 -31 -55 -33 -311 -302 -587 -616 -45
-50 -68 -100 -66 -138 4 -54 -1 -62 -50 -93 -27 -17 -51 -38 -54 -47 -6 -22
-2 -248 4 -255 5 -4 76 -9 320 -21 58 -3 143 -7 190 -10 47 -2 137 -7 200 -10
63 -3 158 -8 210 -11 52 -2 136 -6 185 -9 50 -2 151 -7 225 -11 74 -3 148 -7
164 -8 32 -1 40 15 51 102 14 119 81 364 130 477 96 219 208 411 297 509 31
34 23 35 -120 21 -389 -38 -848 -221 -1227 -489 -119 -84 -286 -211 -380 -289
-60 -51 -92 -71 -97 -64 -11 16 169 191 317 308 66 53 95 74 278 199 l77 53 0
48 0 49 100 0 c97 0 100 1 100 23 -1 34 -30 65 -79 82 -69 24 -112 20 -162
-16 -38 -28 -163 -135 -225 -194 -140 -133 -289 -272 -301 -278 -40 -24 -20
17 47 93 76 87 446 451 482 474 62 40 155 24 238 -42 l49 -39 88 2 c109 3 107
2 91 18 -37 36 -153 130 -188 152 -89 56 -191 82 -245 61z"/>
</g>
</svg>
