<svg width="18" height="17" viewBox="0 0 18 17" fill="none" xmlns="http://www.w3.org/2000/svg">
<path d="M12.6004 10.6873H11.804L11.5218 10.4249C12.5097 9.31736 13.1044 7.87944 13.1044 6.31521C13.1044 2.82727 10.171 0 6.5522 0C2.93337 0 0 2.82727 0 6.31521C0 9.80315 2.93337 12.6304 6.5522 12.6304C8.17514 12.6304 9.66702 12.0572 10.8162 11.1051L11.0883 11.3771V12.1446L16.1285 16.9928L17.6305 15.5451L12.6004 10.6873ZM6.5522 10.6873C4.04221 10.6873 2.01606 8.73442 2.01606 6.31521C2.01606 3.896 4.04221 1.94314 6.5522 1.94314C9.0622 1.94314 11.0883 3.896 11.0883 6.31521C11.0883 8.73442 9.0622 10.6873 6.5522 10.6873Z" fill="#4F4E4E" fill-opacity="0.6"/>
</svg>
