<svg width="499" height="74" viewBox="0 0 499 74" fill="none" xmlns="http://www.w3.org/2000/svg">
<path fill-rule="evenodd" clip-rule="evenodd" d="M82.2718 70.7814C83.1995 64.8594 84.1268 58.9369 85.642 53.1417C87.1567 47.3469 89.2596 41.6793 91.6706 36.3302C94.0823 30.9811 96.8029 25.9504 99.3693 21.97C101.936 17.9899 104.347 15.0605 105.553 13.5962C106.759 12.1311 106.759 12.1311 105.244 12.1947C103.729 12.2583 100.699 12.3859 96.3702 12.9909C92.042 13.5958 86.4147 14.6784 81.5608 15.9519C76.7066 17.2254 72.6255 18.6905 67.7406 20.6641C62.8553 22.6381 57.1663 25.1218 51.9414 27.86C46.7162 30.5986 41.9545 33.5912 36.5136 37.3804C31.0716 41.1696 24.9502 45.7542 20.5598 49.2249C16.1695 52.6952 13.5106 55.0517 12.1812 56.2296C10.8518 57.4078 10.8518 57.4078 10.6972 57.185C10.5422 56.9621 10.2333 56.5168 10.0787 56.2936C9.92407 56.0707 9.92407 56.0707 11.2228 54.7973C12.5211 53.5238 15.1186 50.9765 17.8392 48.4291C20.5598 45.8818 23.4044 43.3349 26.0014 41.2016C28.5989 39.0684 30.9481 37.3488 33.6687 35.4384C36.3897 33.528 39.4813 31.4268 41.491 30.0573C43.5011 28.6882 44.428 28.0512 44.8922 27.7332C45.3561 27.4147 45.3561 27.4147 45.3561 26.5549C45.3561 25.6951 45.3561 23.9756 45.3561 23.1158C45.3561 22.2564 45.3561 22.2564 47.1494 22.2564C48.9427 22.2564 52.5288 22.2564 54.3221 22.2564C56.1154 22.2564 56.1154 22.2564 56.0225 21.6199C55.9301 20.983 55.7444 19.7091 54.9713 18.7537C54.1986 17.7983 52.8381 17.1617 51.3847 16.6845C49.9318 16.2068 48.3856 15.8879 46.8708 16.0475C45.3561 16.2068 43.8713 16.8433 38.6775 21.3962C33.4834 25.9496 24.5792 34.4194 20.1266 38.6543C15.6745 42.8888 15.6745 42.8888 15.4581 42.7931C15.2414 42.6979 14.8086 42.5071 14.5922 42.4111C14.3758 42.3158 14.3758 42.3158 15.3031 41.106C16.2308 39.8957 18.0859 37.476 22.8473 32.5406C27.6086 27.6051 35.2763 20.1544 39.2032 16.3656C43.1293 12.5764 43.315 12.4492 43.9024 12.2263C44.4898 12.0035 45.4793 11.6846 46.3141 11.5258C47.149 11.3665 47.8288 11.3665 48.6637 11.4621C49.4986 11.5574 50.4877 11.7486 51.5079 12.1307C52.5284 12.5132 53.5797 13.0861 54.5999 13.7866C55.6201 14.4868 56.6095 15.3146 57.1663 15.8243C57.723 16.3336 57.8465 16.5248 58.0011 16.6524C58.1557 16.7801 58.3414 16.8437 60.1036 16.8753C61.8658 16.9069 65.2049 16.9069 66.8743 16.8753C68.5436 16.8437 68.5436 16.7801 67.431 15.729C66.318 14.6784 64.0919 12.6404 61.9894 10.9208C59.8869 9.20168 57.9079 7.80058 55.8675 6.71795C53.8268 5.63532 51.7246 4.87116 49.8074 4.48908C47.8906 4.107 46.1587 4.107 44.0259 5.09401C41.8927 6.08102 39.3574 8.05543 33.3595 14.2963C27.3611 20.5373 17.9006 31.0439 13.1081 36.5846C8.3157 42.1246 8.19177 42.6979 8.13 43.8762C8.06863 45.0544 8.06863 46.8376 8.06863 47.8246C8.06863 48.8116 8.06863 49.0029 7.10982 49.6714C6.15141 50.3399 4.23459 51.4866 3.27619 52.0591C2.31738 52.6324 2.31738 52.6324 2.31738 54.9885C2.31738 57.3446 2.31738 62.0572 2.34846 64.4137C2.37915 66.7698 2.44092 66.7698 2.4724 66.7698H2.50308L82.271 70.7814H82.2718Z" fill="#003F77"/>
<path d="M132.18 63.2582L133.507 70.7122C131.094 71.9132 127.636 72.5136 123.133 72.5136C116.337 72.5136 111.09 70.5676 107.39 66.6751C103.691 62.7821 101.841 57.73 101.841 51.5187C101.841 44.6027 103.942 39.1782 108.144 35.2444C112.346 31.3105 117.644 29.3434 124.038 29.3434C128.541 29.3434 131.879 29.9646 134.05 31.2072L132.119 38.6612C129.787 37.6256 127.214 37.1082 124.399 37.1082C120.579 37.1082 117.473 38.2986 115.08 40.6798C112.688 43.061 111.492 46.4876 111.492 50.9599C111.492 55.1839 112.637 58.5177 114.929 60.9609C117.222 63.4041 120.398 64.6257 124.46 64.6257C127.515 64.6257 130.089 64.1703 132.18 63.259L132.18 63.2582ZM139.599 71.8301V30.5233C143.057 29.9435 147.138 29.6538 151.843 29.6538C157.915 29.6538 162.298 30.751 164.992 32.9458C167.526 34.975 168.792 37.9149 168.792 41.7661C168.792 44.251 168.078 46.4041 166.651 48.2262C165.223 50.0483 163.545 51.3112 161.615 52.0154V52.2018C164.148 53.237 165.957 55.8249 167.043 59.9662C167.284 60.8774 167.666 62.3887 168.189 64.5009C168.711 66.6127 169.134 68.2382 169.455 69.3768C169.777 70.5157 170.058 71.3334 170.3 71.8301H160.89C160.127 70.2977 159.201 67.0474 158.116 62.0779C157.553 59.5103 156.789 57.7608 155.824 56.8289C154.859 55.897 153.391 55.4108 151.421 55.369H148.707V71.8297H139.599L139.599 71.8301ZM148.706 37.0454V48.537H152.325C154.617 48.537 156.407 47.9985 157.693 46.922C158.98 45.8454 159.623 44.3754 159.623 42.5116C159.623 40.6482 159.03 39.2196 157.844 38.2257C156.658 37.2318 154.999 36.7346 152.868 36.7346C150.817 36.7346 149.43 36.8384 148.706 37.0454H148.706ZM175.065 29.9642H184.233V54.0032C184.233 57.6056 184.866 60.3284 186.133 62.1715C187.4 64.0143 189.219 64.9356 191.591 64.9356C196.578 64.9356 199.07 61.2911 199.07 54.0032V29.9642H208.239V53.4441C208.239 59.7798 206.771 64.5418 203.836 67.7309C200.9 70.9193 196.718 72.5136 191.29 72.5136C180.473 72.5136 175.065 66.1155 175.065 53.3201V29.9642ZM216.26 29.9642H225.429V71.8301H216.26V29.9642ZM231.822 69.8423L233.692 62.0779C236.908 63.8174 240.306 64.6869 243.885 64.6869C245.976 64.6869 247.574 64.2829 248.68 63.4758C249.786 62.6679 250.339 61.5605 250.339 60.1525C250.339 58.869 249.826 57.7924 248.801 56.9225C247.775 56.053 246.016 55.1831 243.523 54.3136C236.044 51.5807 232.304 47.4398 232.304 41.8905C232.304 38.2463 233.701 35.244 236.496 32.8838C239.291 30.5237 243.02 29.343 247.685 29.343C251.705 29.343 255.164 30.0472 258.059 31.4552L256.008 39.0332C253.435 37.7079 250.62 37.0454 247.564 37.0454C245.674 37.0454 244.216 37.4388 243.191 38.2257C242.165 39.0121 241.652 39.9651 241.652 41.083C241.652 42.3252 242.195 43.3394 243.281 44.1266C244.367 44.9131 246.337 45.8661 249.192 46.9839C252.811 48.3502 255.465 50.0378 257.154 52.0462C258.843 54.0547 259.687 56.5291 259.687 59.469C259.687 63.1954 258.29 66.2914 255.495 68.7552C252.701 71.2187 248.649 72.4508 243.341 72.4508C241.13 72.4508 238.968 72.1923 236.858 71.6745C234.746 71.1571 233.068 70.5461 231.822 69.8423H231.822ZM290.147 46.4248V54.1272H275.189V64.0657H291.896V71.8301H266.021V29.9642H291.052V37.7289H275.189V46.4252H290.147V46.4248ZM298.169 71.6437V30.5853C301.909 29.9637 306.03 29.6534 310.534 29.6534C317.812 29.6534 323.382 31.144 327.241 34.1253C331.826 37.6451 334.117 42.9042 334.117 49.9028C334.117 57.2742 331.885 62.9268 327.423 66.8606C323.2 70.463 316.927 72.2645 308.604 72.2645C304.623 72.2645 301.145 72.0574 298.169 71.6433V71.6437ZM307.337 37.2938V64.6869C307.86 64.8108 308.926 64.8732 310.534 64.8732C314.837 64.9146 318.224 63.7035 320.697 61.2396C323.17 58.7758 324.407 55.1004 324.407 50.214C324.407 45.9074 323.26 42.6153 320.968 40.3374C318.676 38.0596 315.52 36.9214 311.498 36.9214C309.769 36.9214 308.382 37.0454 307.336 37.2942L307.337 37.2938ZM340.149 71.8301V30.5233C343.607 29.9435 347.689 29.6538 352.394 29.6538C358.465 29.6538 362.848 30.751 365.543 32.9458C368.076 34.975 369.342 37.9149 369.342 41.7661C369.342 44.251 368.629 46.4041 367.201 48.2262C365.774 50.0483 364.095 51.3112 362.165 52.0154V52.2018C364.698 53.237 366.507 55.8249 367.593 59.9662C367.834 60.8774 368.216 62.3887 368.739 64.5009C369.262 66.6127 369.684 68.2382 370.006 69.3768C370.327 70.5157 370.609 71.3334 370.85 71.8301H361.441C360.677 70.2977 359.752 67.0474 358.666 62.0779C358.103 59.5103 357.339 57.7608 356.374 56.8289C355.409 55.897 353.941 55.4108 351.971 55.369H349.257V71.8297H340.149L340.149 71.8301ZM349.257 37.0454V48.537H352.876C355.168 48.537 356.957 47.9985 358.243 46.922C359.53 45.8454 360.174 44.3754 360.174 42.5116C360.174 40.6482 359.58 39.2196 358.395 38.2257C357.208 37.2318 355.55 36.7346 353.418 36.7346C351.367 36.7346 349.98 36.8384 349.256 37.0454H349.257ZM400.103 46.4248V54.1272H385.145V64.0657H401.852V71.8301H375.977V29.9642H401.008V37.7289H385.145V46.4252H400.103V46.4248ZM429.236 61.084H417.595L414.7 71.8301H405.23L417.595 29.9642H429.658L442.324 71.8301H432.372L429.236 61.084ZM418.922 54.0032H427.909L425.375 45.1205C425.014 43.8783 424.33 41.1867 423.325 37.0454H423.204C423.084 37.5839 422.802 38.8363 422.36 40.8034C421.918 42.7705 421.576 44.2093 421.335 45.1205L418.922 54.0032ZM482.736 71.8301L482.073 55.8042C481.832 49.0957 481.711 43.3605 481.711 38.5984H481.59C480.183 44.1886 478.655 49.5929 477.006 54.8107L472.061 71.147H464.883L460.54 54.9971C459.173 49.945 457.947 44.4787 456.861 38.5984H456.741C456.54 45.0581 456.318 50.8351 456.077 55.9286L455.293 71.8301H446.789L449.382 29.9642H461.626L465.607 43.9407C466.974 48.9924 468.12 53.9825 469.045 58.9103H469.286C470.533 53.3201 471.82 48.3093 473.146 43.8783L477.429 29.9642H489.492L491.663 71.8301H482.737H482.736Z" fill="#003F77"/>
</svg>
