<svg xmlns="http://www.w3.org/2000/svg" width="18" height="17" fill="none" ><path d="M14.72 3.043C13.184 1.567 11.135.747 8.972.747 4.477.747.834 4.246.834 8.564c0 1.367.398 2.733 1.081 3.881L.777 16.49l4.325-1.093a8.57 8.57 0 0 0 3.87.929c4.496 0 8.138-3.498 8.138-7.817-.057-2.023-.854-3.99-2.39-5.466zm-1.821 8.309c-.171.437-.967.875-1.366.929a3.31 3.31 0 0 1-1.252-.055c-.285-.109-.683-.219-1.138-.437-2.049-.82-3.358-2.788-3.472-2.952-.114-.109-.854-1.039-.854-2.023s.512-1.421.683-1.64.398-.219.569-.219h.398c.114 0 .285-.055.455.328s.569 1.367.626 1.421c.057.109.057.219 0 .328a1.14 1.14 0 0 1-.228.328c-.114.109-.228.273-.285.328-.114.109-.228.219-.114.383.114.219.512.82 1.138 1.367.797.656 1.423.875 1.65.984s.341.055.455-.055.512-.547.626-.765.285-.164.455-.109 1.195.547 1.366.656c.228.109.342.164.398.219.057.164.057.547-.114.984z" fill="#004a76"/></svg>