<svg xmlns="http://www.w3.org/2000/svg" width="15" height="15" fill="none"><path d="M14.06 15C6.062 15.011-.008 8.869 0 .94A.94.94 0 0 1 .938 0h2.475a.94.94 0 0 1 .927.801 11.64 11.64 0 0 0 .952 3.185l.097.208c.065.14.079.298.039.448s-.13.28-.255.37c-.767.548-1.059 1.649-.462 2.508a11.09 11.09 0 0 0 2.771 2.772c.86.596 1.961.304 2.508-.462.09-.126.221-.216.37-.256s.308-.026.448.039l.207.096c1.011.469 2.083.789 3.185.952a.94.94 0 0 1 .801.928v2.474c0 .123-.024.245-.072.359s-.116.217-.203.304a.94.94 0 0 1-.663.274h-.002z" fill="#4f4e4e" fill-opacity=".6"/></svg>