<svg xmlns="http://www.w3.org/2000/svg" width="17" height="17" fill="none"><path d="M14.461 3.124C12.925 1.647 10.876.827 8.713.827c-4.496 0-8.138 3.5-8.138 7.82 0 1.367.398 2.734 1.081 3.883L.518 16.577l4.325-1.094c1.195.602 2.504.93 3.87.93 4.496 0 8.138-3.5 8.138-7.82-.057-2.023-.854-3.992-2.39-5.469zm-1.821 8.312c-.171.438-.968.875-1.366.93-.341.055-.797.055-1.252-.055-.285-.109-.683-.219-1.138-.437-2.049-.82-3.358-2.789-3.472-2.953-.114-.109-.854-1.039-.854-2.023s.512-1.422.683-1.641.398-.219.569-.219h.398c.114 0 .285-.055.455.328s.569 1.367.626 1.422c.057.109.057.219 0 .328s-.114.219-.228.328-.228.273-.285.328c-.114.109-.228.219-.114.383.114.219.512.82 1.138 1.367.797.656 1.423.875 1.65.984s.341.055.455-.055.512-.547.626-.766.285-.164.455-.109 1.195.547 1.366.656c.228.109.341.164.398.219.057.164.057.547-.114.984z" fill="#4f4e4e" fill-opacity=".3"/></svg>