<svg xmlns="http://www.w3.org/2000/svg" width="16" height="15" fill="none"><path d="M13.024 2.188C11.589.781 9.675 0 7.655 0 3.455 0 .053 3.333.053 7.448c0 1.302.372 2.604 1.01 3.698L0 15l4.04-1.042c1.116.573 2.339.886 3.615.886 4.2 0 7.602-3.333 7.602-7.448-.053-1.927-.797-3.802-2.233-5.208zm-1.701 7.917c-.159.417-.904.833-1.276.885a3.03 3.03 0 0 1-1.169-.052c-.266-.104-.638-.208-1.063-.417-1.914-.781-3.136-2.656-3.243-2.812-.106-.104-.797-.99-.797-1.927s.478-1.354.638-1.562.372-.208.532-.208h.372c.106 0 .266-.052.425.313s.532 1.302.585 1.354c.053.104.053.208 0 .313s-.106.208-.213.313-.213.26-.266.313c-.106.104-.213.208-.106.365.106.208.478.781 1.063 1.302.744.625 1.329.833 1.542.938s.319.052.425-.052.478-.521.585-.729.266-.156.425-.104a14.4 14.4 0 0 1 1.276.625c.213.104.319.156.372.208.053.156.053.521-.106.938z" fill="#4f4e4e" fill-opacity=".6"/></svg>