<svg xmlns="http://www.w3.org/2000/svg" width="15" height="14" fill="#d9d9d9" xmlns:v="https://vecta.io/nano"><path d="M7.364 1.866h2.737c.644 0 .966.161 1.208.241.322.161.564.241.805.482s.402.482.483.803c.081.241.161.562.242 1.204v2.729 2.729c0 .642-.161.963-.242 1.204-.161.321-.241.562-.483.803s-.483.401-.805.482c-.241.08-.563.16-1.208.241H7.364 4.627c-.644 0-.966-.161-1.208-.241-.322-.161-.564-.241-.805-.482s-.403-.482-.483-.803c-.081-.241-.161-.562-.242-1.204v-2.73-2.729c0-.642.161-.963.242-1.204.161-.321.242-.562.483-.803s.483-.401.805-.482c.242-.08.564-.161 1.208-.241h2.737zm0-1.204H4.627a4.05 4.05 0 0 0-1.61.321c-.403.161-.805.401-1.208.803s-.564.722-.805 1.204c-.161.401-.242.883-.322 1.605v2.729 2.729c0 .722.161 1.204.322 1.605a3.51 3.51 0 0 0 .805 1.204c.402.401.725.562 1.208.803.403.161.886.241 1.61.321h2.737 2.737a4.05 4.05 0 0 0 1.61-.321 3.5 3.5 0 0 0 1.208-.803c.403-.402.564-.722.805-1.204.161-.401.242-.883.322-1.605V7.324 4.595c0-.722-.161-1.204-.322-1.605s-.402-.803-.805-1.204-.725-.562-1.208-.803c-.402-.161-.885-.241-1.61-.321H7.364zm0 3.211a3.43 3.43 0 0 0-3.462 3.451 3.43 3.43 0 0 0 3.462 3.451 3.43 3.43 0 0 0 3.462-3.451 3.43 3.43 0 0 0-3.462-3.451zm0 5.699c-1.208 0-2.254-.963-2.254-2.247 0-1.204.966-2.247 2.254-2.247 1.208 0 2.254.963 2.254 2.247 0 1.204-1.047 2.247-2.254 2.247zm3.543-4.977c.445 0 .805-.359.805-.803s-.36-.803-.805-.803-.805.359-.805.803.36.803.805.803z" fill-opacity=".9"/></svg>