<svg xmlns="http://www.w3.org/2000/svg" width="25" height="25" fill="none"><circle cx="12.5" cy="12.5" r="12.5" fill="#004a76"/><path d="M12.979 8.17c-.384 0-.703-.091-.957-.273-.254-.189-.381-.459-.381-.811a1.37 1.37 0 0 1 .215-.762c.143-.228.339-.404.586-.527a1.87 1.87 0 0 1 .83-.186c.384 0 .703.091.957.273.26.182.391.449.391.801 0 .436-.156.794-.469 1.074-.306.273-.697.41-1.172.41zm-2.363 10.117c.417-.085.736-.179.957-.283.221-.111.332-.215.332-.312v-5.02-.41c0-.351-.026-.602-.078-.752-.046-.15-.156-.261-.332-.332-.169-.072-.462-.127-.879-.166v-.684c1.178-.163 2.181-.397 3.008-.703h.625v8.066c0 .091.107.195.322.313.215.111.54.205.977.283V19h-4.932v-.713z" fill="#fff"/></svg>