<svg xmlns="http://www.w3.org/2000/svg" width="576.053" height="100.83" viewBox="0 0 12416.01 2173.24" shape-rendering="geometricPrecision" image-rendering="optimizeQuality" fill-rule="evenodd" fill="#090f4a" xmlns:v="https://vecta.io/nano"><path d="M2664.57 2152.93c30.92-191.65 61.82-383.31 112.31-570.83 50.49-187.53 120.56-370.94 200.93-544.04 80.37-173.11 171.04-335.9 256.57-464.7 85.52-128.8 165.89-223.59 206.08-270.99s40.19-47.4-10.31-45.34c-50.49 2.06-151.46 6.18-295.72 25.76-144.25 19.58-331.79 54.61-493.56 95.82s-297.78 88.61-460.57 152.5c-162.8 63.88-352.4 144.25-526.53 232.87-174.13 88.61-332.82 185.47-514.16 308.08-181.35 122.62-385.37 270.99-531.68 383.3s-234.92 188.56-279.23 226.69c-44.31 38.12-44.31 38.12-49.46 30.91l-20.61-28.85c-5.16-7.21-5.16-7.21 38.12-48.43l220.5-206.08c90.68-82.43 185.47-164.86 272.02-233.89 86.55-69.04 164.86-124.69 255.53-186.51l260.69-174.13 113.35-75.21c15.45-10.31 15.45-10.31 15.45-38.12V610.45c0-27.82 0-27.82 59.76-27.82h239.05c59.76 0 59.76 0 56.67-20.6-3.1-20.61-9.28-61.83-35.04-92.74-25.76-30.92-71.1-51.52-119.52-66.97-48.43-15.46-99.95-25.77-150.44-20.61-50.49 5.15-99.95 25.75-273.05 173.1-173.11 147.34-469.85 421.43-618.23 558.47s-148.38 137.04-155.59 133.94l-28.85-12.37c-7.22-3.09-7.22-3.09 23.7-42.24 30.91-39.16 92.74-117.47 251.42-277.18 158.67-159.72 414.21-400.82 545.07-523.44 130.85-122.62 137.04-126.73 156.61-133.94 19.58-7.22 52.55-17.52 80.37-22.67 27.82-5.16 50.48-5.16 78.31-2.06 27.82 3.09 60.79 9.27 94.79 21.64s69.04 30.91 103.04 53.58 66.97 49.46 85.52 65.94c18.55 16.49 22.67 22.67 27.83 26.79 5.15 4.12 11.33 6.18 70.07 7.22 58.73 1.03 170.01 1.03 225.65 0s55.64-3.1 18.55-37.1c-37.1-34-111.29-99.95-181.35-155.59-70.07-55.64-136.01-100.98-204.01-136.01-68-35.04-138.07-59.76-201.95-72.13s-121.59-12.37-192.68 19.58c-71.1 31.94-155.59 95.83-355.48 297.79-199.9 201.95-515.19 541.98-674.9 721.27-159.72 179.28-163.84 197.83-165.9 235.96-2.06 38.12-2.06 95.82-2.06 127.77 0 31.94 0 38.12-31.94 59.76s-95.82 58.73-127.77 77.28C0 1565.62 0 1565.62 0 1641.87l1.03 305c1.03 76.25 3.09 76.25 4.12 76.25h1.03l2658.38 129.83z"/><path d="M4259.62 2115.8c-72.39 38.3-162.75 57.44-270.86 57.44-139.63 0-251.25-44.83-335.07-134.72-84.06-89.9-126.1-207.82-126.1-353.76 0-156.68 47.4-283.47 141.74-380.14 94.33-96.9 214.12-145.23 359.13-145.23 92.93 0 169.99 13.54 231.17 40.39v122.59c-70.29-39.23-147.81-58.85-232.57-58.85-112.55 0-203.85 37.59-273.9 112.78s-105.07 175.83-105.07 301.68c0 119.55 32.69 214.82 98.06 285.58 65.62 70.98 151.31 106.47 257.79 106.47 98.3 0 183.76-21.95 255.69-65.61v111.38zm903.18 41.1h-136.83l-164.38-275.07c-14.94-25.45-29.42-47.17-43.66-65.37-14.24-17.98-28.72-32.69-43.43-43.9-14.95-11.45-30.83-19.85-47.87-24.98-17.05-5.37-36.43-7.94-57.91-7.94h-94.33v417.27h-114.88v-980.93h292.81c42.73 0 82.42 5.37 118.62 16.11 36.19 10.74 67.71 26.86 94.33 48.8 26.85 21.95 47.63 49.27 62.58 81.72 15.18 32.69 22.65 70.75 22.65 114.65 0 34.09-5.14 65.62-15.41 94.1-10.27 28.49-24.75 53.94-43.66 76.13-18.92 22.41-41.8 41.56-68.41 57.2-26.86 15.65-56.75 28.02-90.13 36.67v2.57c16.58 7.47 30.82 15.64 42.96 24.98 11.9 9.57 23.58 20.54 34.32 33.39 10.97 12.61 21.95 27.09 32.69 43.43 10.74 16.11 22.65 34.79 35.73 56.27l184.23 294.91zm-588.42-877.03v355.85h155.98c28.72 0 55.34-4.44 79.63-13.07 24.51-8.64 45.53-21.02 63.27-37.36 17.75-16.11 31.76-35.96 41.8-59.54 10.04-23.36 14.95-49.74 14.95-78.93 0-52.54-16.81-93.4-50.91-122.82-33.86-29.42-83.12-44.13-147.34-44.13h-157.38zm1440.7 480.31c0 275.29-124.22 413.06-372.9 413.06-237.94 0-357.03-132.39-357.03-397.42v-599.86h114.89v592.39c0 201.04 84.99 301.68 254.51 301.68 163.68 0 245.64-97.14 245.64-291.41v-602.66h114.89v584.22zm359.82 396.71h-114.88v-980.93h114.88v980.93zm212.02-39.7v-135.43c15.64 13.78 34.32 25.92 55.8 36.89 21.72 10.97 44.6 20.32 68.42 27.79 24.05 7.47 48.1 13.31 72.15 17.51 24.28 3.97 46.7 6.07 67.01 6.07 70.75 0 123.52-13.07 158.55-39.46 34.79-26.15 52.3-63.98 52.3-113.01 0-26.62-5.83-49.5-17.51-69.11-11.67-19.62-27.79-37.59-48.1-53.71-20.54-16.35-44.83-31.75-72.85-46.7l-90.83-46.69c-34.09-17.29-66.08-35.03-95.73-52.77-29.65-17.75-55.34-37.37-77.29-58.85s-39-45.77-51.6-72.85c-12.61-27.09-18.92-58.84-18.92-95.26 0-44.84 9.81-83.6 29.42-116.75 19.62-33.16 45.54-60.24 77.29-81.72 31.99-21.48 68.41-37.36 109.28-47.87 40.63-10.51 82.42-15.88 124.69-15.88 96.67 0 167.19 11.67 211.55 35.02v129.36c-57.91-40.16-132.39-60.25-223-60.25-25.21 0-50.2 2.57-75.42 7.71-24.98 5.38-47.4 14.01-67.01 25.69-19.62 11.91-35.49 27.32-47.87 46s-18.45 41.33-18.45 68.41c0 24.98 4.67 46.7 14.01 64.92s23.12 34.79 41.33 49.97c18.22 14.94 40.63 29.65 66.78 43.66 26.16 14.24 56.51 29.65 90.6 46.47 35.26 17.51 68.41 35.73 99.94 54.87 31.52 19.14 59.08 40.4 82.66 63.51 23.81 23.36 42.49 49.04 56.5 77.29s20.78 60.71 20.78 97.14c0 48.33-9.34 89.43-28.25 122.82-18.92 33.63-44.6 60.94-76.59 81.72-32.22 21.02-69.35 36.19-111.15 45.54-42.03 9.34-86.15 14-132.86 14-15.41 0-34.56-1.16-57.44-3.73-22.65-2.57-46-6.07-69.82-10.97-23.58-4.68-45.99-10.74-67.25-17.75-21.25-7.01-38.3-14.94-51.13-23.58zm1310.17 39.7h-519.77v-980.93h498.05v103.91h-383.18v326.43h354.45v103.21h-354.45v343.48h404.89v103.91zm188.9 0v-980.93h270.85c345.58 0 518.61 159.24 518.61 478.2 0 151.31-48.1 272.96-144.07 364.97-95.97 91.76-224.4 137.76-385.51 137.76h-259.88zm114.88-877.03v773.12h146.4c128.66 0 228.6-34.56 300.28-103.44 71.69-68.88 107.42-166.49 107.42-292.81 0-251.25-133.57-376.87-400.93-376.87h-153.17zm1570.75 877.03h-136.83l-164.38-275.07c-14.94-25.45-29.42-47.17-43.66-65.37-14.24-17.98-28.72-32.69-43.43-43.9-14.95-11.45-30.83-19.85-47.87-24.98-17.05-5.37-36.43-7.94-57.91-7.94h-94.33v417.27h-114.88v-980.93h292.81c42.73 0 82.42 5.37 118.62 16.11 36.19 10.74 67.71 26.86 94.33 48.8 26.85 21.95 47.63 49.27 62.58 81.72 15.18 32.69 22.65 70.75 22.65 114.65 0 34.09-5.14 65.62-15.41 94.1-10.27 28.49-24.75 53.94-43.66 76.13-18.92 22.41-41.8 41.56-68.41 57.2-26.86 15.65-56.75 28.02-90.13 36.67v2.57c16.58 7.47 30.82 15.64 42.96 24.98 11.9 9.57 23.58 20.54 34.32 33.39 10.97 12.61 21.95 27.09 32.69 43.43 10.74 16.11 22.65 34.79 35.73 56.27l184.23 294.91zm-588.42-877.03v355.85h155.98c28.72 0 55.34-4.44 79.63-13.07 24.51-8.64 45.53-21.02 63.27-37.36 17.75-16.11 31.76-35.96 41.8-59.54 10.04-23.36 14.95-49.74 14.95-78.93 0-52.54-16.81-93.4-50.91-122.82-33.86-29.42-83.12-44.13-147.34-44.13H9183.2zm1242.92 877.03h-519.77v-980.93h498.05v103.91h-383.18v326.43h354.45v103.21h-354.45v343.48h404.89v103.91zm955.01 0h-127.25l-103.91-275.07h-416.09l-97.84 275.07h-127.73l376.17-980.93h119.08l377.57 980.93zm-268.99-378.27l-153.87-417.97c-4.9-13.78-10.04-35.72-14.95-65.61h-2.8c-4.43 27.79-9.81 49.5-15.64 65.61l-152.71 417.97h339.98zm1303.87 378.27h-114.18v-658.01c0-26.15.7-55.57 2.33-88.73 1.64-32.92 3.98-68.41 7.24-106.24h-2.8c-2.57 10.97-6.77 23.12-12.15 36.43-5.6 13.54-11.44 26.61-17.51 39l-17.05 33.86c-5.37 10.04-9.11 17.74-11.44 22.65l-251.71 465.13h-56.05l-251.71-463.73c-2.34-5.37-6.31-13.31-11.67-23.58-5.37-10.27-11.21-21.72-17.05-34.32-6.07-12.38-11.67-25.22-16.81-38.53-5.38-13.31-9.34-25.69-11.91-36.89h-2.8c1.87 19.62 3.27 46 4.2 79.16l1.16 116.99v656.83h-110.68v-980.93h143.6l254.51 466.53c10.97 20.55 20.32 39.7 28.01 57.45 7.71 17.74 13.55 33.38 17.05 46.47h4.2c4.43-13.55 10.51-29.66 17.98-47.87 7.71-18.22 17.28-37.83 29.19-58.85l253.81-463.73h142.2v980.93z" fill-rule="nonzero"/></svg>