<svg xmlns="http://www.w3.org/2000/svg" width="23" height="25" fill="none" ><path d="M20.457 22.727c-1.58 0-3.159-.534-4.546-1.5-2.773 1.943-6.318 1.943-9.091 0-1.386.966-2.966 1.5-4.545 1.5H.003V25h2.273c1.568 0 3.114-.398 4.545-1.125 2.864 1.466 6.227 1.466 9.091 0 1.432.739 2.977 1.125 4.546 1.125h2.273v-2.273h-2.273zM2.219 20.455h.057c1.818 0 3.432-1 4.545-2.273 1.114 1.273 2.727 2.273 4.545 2.273s3.432-1 4.545-2.273c1.114 1.273 2.727 2.273 4.546 2.273h.057l2.148-7.591c.091-.295.068-.614-.068-.886s-.386-.477-.682-.568l-1.454-.477v-5.25a2.28 2.28 0 0 0-2.273-2.273h-3.409V0H7.957v3.409H4.548a2.28 2.28 0 0 0-2.273 2.273v5.25l-1.466.477c-.295.091-.545.295-.682.568s-.17.591-.068.886l2.159 7.591zm2.33-14.773h13.636v4.511l-6.818-2.239-6.818 2.239V5.682z" fill="#004275"/></svg>